<?xml version="1.0" standalone="no"?>
<!DOCTYPE svg PUBLIC "-//W3C//DTD SVG 20010904//EN"
 "http://www.w3.org/TR/2001/REC-SVG-20010904/DTD/svg10.dtd">
<svg version="1.0" xmlns="http://www.w3.org/2000/svg"
 width="500.000000pt" height="500.000000pt" viewBox="0 0 500.000000 500.000000"
 preserveAspectRatio="xMidYMid meet">

<g transform="translate(0.000000,500.000000) scale(0.100000,-0.100000)"
fill="#000000" stroke="none">
<path d="M3524 3136 c-29 -29 -34 -41 -34 -81 0 -40 5 -52 34 -81 29 -29 41
-34 80 -34 62 0 105 37 113 99 11 81 -34 131 -118 131 -33 0 -48 -7 -75 -34z"/>
<path d="M1679 2892 c-92 -60 -107 -177 -29 -247 11 -10 56 -38 98 -60 63 -33
78 -46 80 -67 7 -60 -80 -76 -165 -29 l-53 29 -30 -50 c-36 -58 -33 -65 43
-99 41 -19 70 -24 137 -24 109 0 158 24 194 97 20 41 25 45 31 29 3 -11 26
-38 51 -60 138 -121 358 -80 438 81 l26 52 0 -97 0 -97 65 0 65 0 2 172 3 171
109 -171 109 -172 64 0 63 0 0 280 0 280 -65 0 -65 0 -2 -166 -3 -167 -105
164 -105 164 -68 3 -67 3 0 -98 0 -98 -19 41 c-82 181 -332 224 -460 78 -45
-51 -72 -110 -78 -170 l-6 -53 -31 23 c-17 13 -63 40 -102 59 -75 38 -91 56
-74 87 19 35 72 34 160 -4 12 -5 22 6 38 39 12 25 22 49 22 53 0 19 -80 45
-150 49 -70 4 -78 3 -121 -25z m626 -116 c59 -39 80 -161 41 -239 -48 -98
-201 -94 -247 6 -39 88 -10 203 61 240 41 21 107 18 145 -7z"/>
<path d="M2990 2725 c0 -224 9 -277 59 -326 58 -58 169 -76 262 -44 55 20 77
40 100 90 16 35 19 68 19 253 l0 212 -60 0 -60 0 -1 -157 c-1 -251 -11 -283
-92 -283 -86 0 -97 28 -97 268 l0 172 -65 0 -65 0 0 -185z"/>
<path d="M2301 2248 c-31 -76 -33 -83 -20 -70 7 6 23 12 35 12 12 0 25 -6 27
-12 4 -9 6 -8 6 2 0 8 -8 33 -18 55 l-19 40 -11 -27z m23 -23 c3 -9 0 -15 -9
-15 -9 0 -12 6 -9 15 4 8 7 15 9 15 2 0 5 -7 9 -15z"/>
<path d="M2461 2218 c1 -29 4 -43 6 -30 3 15 11 22 29 22 19 0 24 5 24 24 0
23 -16 36 -46 36 -10 0 -14 -13 -13 -52z m49 17 c0 -8 -9 -15 -20 -15 -11 0
-20 7 -20 15 0 8 9 15 20 15 11 0 20 -7 20 -15z"/>
<path d="M2651 2248 c-31 -76 -33 -83 -20 -70 7 6 23 12 35 12 12 0 25 -6 27
-12 4 -9 6 -8 6 2 0 8 -8 33 -18 55 l-19 40 -11 -27z m23 -23 c3 -9 0 -15 -9
-15 -9 0 -12 6 -9 15 4 8 7 15 9 15 2 0 5 -7 9 -15z"/>
<path d="M2812 2220 c1 -49 1 -51 7 -18 l6 38 24 -35 c13 -19 27 -35 32 -35 5
0 9 20 9 45 0 25 -4 45 -10 45 -5 0 -10 -12 -10 -27 l-1 -28 -29 35 -29 35 1
-55z"/>
<path d="M2150 2219 c0 -37 -2 -40 -21 -34 -15 5 -19 4 -15 -4 11 -16 43 -13
50 5 10 25 7 74 -4 74 -5 0 -10 -18 -10 -41z"/>
<path d="M1847 2073 c-4 -3 -7 -26 -7 -50 0 -42 1 -43 33 -42 23 1 26 3 10 6
-25 5 -32 33 -8 33 8 0 15 5 15 10 0 6 -7 10 -15 10 -8 0 -15 5 -15 10 0 6 9
10 20 10 11 0 20 5 20 10 0 11 -43 14 -53 3z"/>
<path d="M2199 2061 c-20 -16 -22 -23 -14 -47 11 -32 49 -44 69 -24 8 9 6 11
-9 6 -28 -8 -47 7 -43 35 2 18 11 25 33 29 25 5 27 7 12 13 -24 9 -21 10 -48
-12z"/>
<path d="M2571 2058 c-31 -76 -33 -83 -20 -70 7 6 23 12 35 12 12 0 25 -6 27
-12 4 -9 6 -8 6 2 0 8 -8 33 -18 55 l-19 40 -11 -27z m23 -23 c3 -9 0 -15 -9
-15 -9 0 -12 6 -9 15 4 8 7 15 9 15 2 0 5 -7 9 -15z"/>
<path d="M2732 2030 c1 -49 1 -51 7 -18 l6 38 24 -35 c13 -19 27 -35 32 -35 5
0 9 20 9 45 0 25 -4 45 -10 45 -5 0 -10 -12 -10 -27 l-1 -28 -29 35 -29 35 1
-55z"/>
<path d="M2930 2060 c-24 -24 -24 -29 -4 -58 21 -31 68 -27 72 6 3 17 -1 22
-20 21 -13 0 -17 -3 -10 -6 18 -7 15 -35 -4 -31 -44 8 -43 68 1 68 15 0 24 4
20 10 -10 16 -33 12 -55 -10z"/>
<path d="M3107 2073 c-4 -3 -7 -26 -7 -50 0 -42 1 -43 33 -42 23 1 26 3 10 6
-13 2 -23 11 -23 18 0 7 10 16 23 18 l22 4 -22 8 c-28 9 -30 25 -3 25 11 0 20
5 20 10 0 11 -43 14 -53 3z"/>
<path d="M2010 2064 c0 -6 5 -15 11 -21 9 -9 8 -18 -5 -37 -19 -29 -11 -35 10
-8 13 16 15 16 28 0 21 -28 30 -21 11 8 -16 24 -16 27 1 45 10 12 12 19 5 19
-6 0 -14 -7 -18 -15 -5 -14 -8 -14 -24 1 -11 9 -19 13 -19 8z"/>
<path d="M2360 2024 c0 -27 4 -43 10 -39 6 3 10 13 10 21 0 8 9 14 20 14 13 0
20 -7 20 -20 0 -11 5 -20 10 -20 6 0 10 20 10 45 0 25 -4 45 -10 45 -5 0 -10
-7 -10 -15 0 -8 -9 -15 -20 -15 -11 0 -20 7 -20 15 0 8 -4 15 -10 15 -5 0 -10
-21 -10 -46z"/>
<path d="M1943 1883 c-23 -9 -15 -42 12 -49 32 -8 27 -30 -6 -26 -17 2 -21 0
-12 -9 17 -17 48 -6 51 17 2 16 -4 23 -22 28 -34 8 -33 26 0 26 14 0 23 4 19
10 -7 11 -22 12 -42 3z"/>
<path d="M2100 1880 c0 -5 5 -10 10 -10 6 0 10 -18 10 -40 0 -22 5 -40 10 -40
6 0 10 18 10 40 0 22 5 40 10 40 6 0 10 5 10 10 0 6 -13 10 -30 10 -16 0 -30
-4 -30 -10z"/>
<path d="M2467 1883 c-4 -3 -7 -26 -7 -50 0 -40 2 -43 28 -43 35 0 52 16 52
52 0 35 -51 64 -73 41z m58 -33 c7 -23 -10 -50 -31 -50 -9 0 -14 12 -14 35 0
28 4 35 19 35 11 0 23 -9 26 -20z"/>
<path d="M2650 1840 l0 -50 33 1 c30 2 30 2 5 6 -32 5 -38 33 -8 33 11 0 20 5
20 10 0 6 -9 10 -20 10 -11 0 -20 5 -20 10 0 6 11 10 25 10 14 0 25 5 25 10 0
6 -13 10 -30 10 -29 0 -30 -1 -30 -50z"/>
<path d="M2822 1840 c1 -40 2 -46 5 -20 l5 35 29 -35 28 -35 -1 50 c-1 47 -1
48 -8 15 -4 -19 -8 -30 -9 -25 -1 6 -13 24 -26 40 l-25 30 2 -55z"/>
<path d="M3000 1880 c0 -5 6 -10 14 -10 10 0 16 -14 19 -42 l4 -43 1 43 c1 30
6 42 17 42 8 0 15 5 15 10 0 6 -16 10 -35 10 -19 0 -35 -4 -35 -10z"/>
<path d="M2270 1854 c0 -35 17 -64 38 -64 28 0 42 21 40 60 l-1 35 -4 -32 c-8
-62 -53 -69 -53 -7 0 19 -4 34 -10 34 -5 0 -10 -12 -10 -26z"/>
<path d="M2330 726 c0 -7 10 -21 23 -30 l22 -17 -22 5 c-13 2 -23 0 -23 -5 0
-13 38 -11 46 2 4 7 -3 20 -16 29 -22 17 -23 18 -4 23 16 4 16 5 -3 6 -14 1
-23 -5 -23 -13z"/>
<path d="M2400 705 c0 -19 5 -35 10 -35 6 0 10 16 10 35 0 19 -4 35 -10 35 -5
0 -10 -16 -10 -35z"/>
<path d="M2440 704 c0 -21 4 -33 10 -29 6 3 10 17 10 31 0 37 28 30 33 -8 4
-32 4 -32 5 5 2 35 0 37 -28 37 -28 0 -30 -3 -30 -36z"/>
<path d="M2534 726 c-14 -37 22 -74 47 -49 6 6 1 9 -13 9 -33 -1 -31 36 2 45
l25 7 -28 1 c-16 1 -30 -5 -33 -13z"/>
<path d="M2614 726 c-11 -29 1 -51 29 -54 15 -2 27 1 27 6 0 6 -8 8 -19 5 -10
-3 -22 0 -25 6 -5 7 3 11 19 11 20 0 26 4 23 18 -4 22 -46 29 -54 8z m46 -6
c0 -5 -7 -10 -15 -10 -8 0 -15 5 -15 10 0 6 7 10 15 10 8 0 15 -4 15 -10z"/>
<path d="M2347 633 c-13 -13 -7 -21 13 -16 13 4 20 0 20 -9 0 -8 -9 -23 -20
-33 -28 -26 -25 -35 13 -34 23 1 26 3 9 6 l-22 4 20 26 c15 19 17 30 9 44 -10
19 -30 25 -42 12z"/>
<path d="M2431 626 c-19 -23 -10 -80 13 -85 38 -7 60 53 30 83 -19 20 -28 20
-43 2z m37 -38 c-3 -36 -30 -46 -36 -15 -5 26 5 47 23 47 12 0 15 -8 13 -32z"/>
<path d="M2520 625 c-11 -13 -10 -14 3 -9 33 12 38 -7 12 -42 l-26 -34 33 1
c18 1 25 3 16 6 -22 6 -23 17 -3 33 20 16 19 46 -1 54 -21 8 -20 8 -34 -9z"/>
<path d="M2617 607 l-28 -37 25 0 c15 0 26 -7 28 -17 7 -33 14 18 8 56 l-5 35
-28 -37z m19 -24 c-10 -10 -19 5 -10 18 6 11 8 11 12 0 2 -7 1 -15 -2 -18z"/>
</g>
</svg>
