<?xml version="1.0" standalone="no"?>
<!DOCTYPE svg PUBLIC "-//W3C//DTD SVG 20010904//EN"
 "http://www.w3.org/TR/2001/REC-SVG-20010904/DTD/svg10.dtd">
<svg version="1.0" xmlns="http://www.w3.org/2000/svg"
 width="500.000000pt" height="500.000000pt" viewBox="0 0 500.000000 500.000000"
 preserveAspectRatio="xMidYMid meet">

<g transform="translate(0.000000,500.000000) scale(0.100000,-0.100000)"
fill="#000000" stroke="none">
<path d="M3524 3136 c-29 -29 -34 -41 -34 -81 0 -40 5 -52 34 -81 29 -29 41
-34 80 -34 62 0 105 37 113 99 11 81 -34 131 -118 131 -33 0 -48 -7 -75 -34z"/>
<path d="M1679 2892 c-93 -60 -107 -177 -29 -247 12 -11 56 -38 98 -60 58 -30
78 -46 80 -63 9 -65 -77 -82 -165 -33 l-53 29 -30 -50 c-36 -59 -33 -66 43
-98 63 -27 157 -36 215 -21 54 15 107 62 122 107 l12 36 18 -29 c28 -47 90
-92 149 -110 140 -41 289 27 346 159 14 32 14 30 15 -64 l0 -98 65 0 65 0 2
171 3 172 110 -172 110 -171 62 0 63 0 0 280 0 280 -65 0 -65 0 -2 -167 -3
-167 -105 165 -106 164 -67 3 -67 3 0 -98 0 -98 -19 40 c-44 98 -125 155 -229
163 -37 2 -86 -1 -109 -7 -98 -27 -187 -134 -199 -242 l-6 -58 -32 23 c-17 13
-61 38 -99 56 -73 34 -94 58 -77 89 19 36 71 35 160 -3 12 -5 22 6 38 39 12
25 22 49 22 53 0 19 -80 45 -150 49 -70 4 -78 3 -121 -25z m611 -110 c51 -25
75 -74 75 -152 0 -106 -53 -166 -145 -164 -83 3 -140 69 -140 164 0 128 106
205 210 152z"/>
<path d="M2992 2698 c4 -235 10 -263 67 -311 74 -62 219 -64 305 -4 57 40 66
79 66 315 l0 212 -60 0 -60 0 0 -162 c-1 -245 -12 -278 -93 -278 -86 0 -97 28
-97 268 l0 172 -66 0 -66 0 4 -212z"/>
</g>
</svg>
