<svg width="222" height="222" viewBox="0 0 222 222" fill="none" xmlns="http://www.w3.org/2000/svg">
<rect width="222" height="222" rx="32" fill="#EDE8E2"/>
<path d="M111.8 152.6C102.2 152.6 94.5 150.15 88.7 145.25C82.9 140.35 80 133.05 80 123.35C80 118.75 80.9 114.5 82.7 110.6C84.6 106.6 87.85 104.2 92.45 103.4C91.95 104.9 91.7 106.6 91.7 108.5C91.7 111.6 92.1 115.1 92.9 119C93.8 122.8 94.7 126.1 95.6 128.9C97 132.9 98.9 136.35 101.3 139.25C103.8 142.05 106.45 144.25 109.25 145.85C112.15 147.35 114.75 148.1 117.05 148.1C119.25 148.1 121 147.45 122.3 146.15C123.7 144.75 124.4 142.5 124.4 139.4C124.4 135.5 123.35 131.7 121.25 128C119.15 124.2 116.65 120.4 113.75 116.6C110.85 112.8 108.1 109 105.5 105.2C103.5 102.1 101.8 98.95 100.4 95.75C99 92.45 98.3 89.1 98.3 85.7C98.3 80.3 99.5 75.75 101.9 72.05C104.3 68.25 107.5 65.4 111.5 63.5C115.6 61.5 120.15 60.5 125.15 60.5C127.45 60.5 130 60.65 132.8 60.95C135.6 61.25 138.25 61.9 140.75 62.9L143 63.8C145 60.9 147.25 58.85 149.75 57.65C152.25 56.45 154.45 55.85 156.35 55.85C157.85 55.85 159.05 56.15 159.95 56.75C160.95 57.25 161.45 57.95 161.45 58.85C161.45 59.75 160.95 60.65 159.95 61.55C156.05 65.25 153 68.75 150.8 72.05C148.6 75.25 146.5 78.95 144.5 83.15C142.6 87.25 141.5 91.4 141.2 95.6C140.6 95.8 140.2 95.9 140 95.9C138.9 95.9 138.1 95.15 137.6 93.65C137.1 92.05 136.85 90.05 136.85 87.65C136.85 84.85 137.15 81.8 137.75 78.5C138.35 75.1 139.15 72.1 140.15 69.5C139.55 68.9 138.75 68.4 137.75 68C136.75 67.5 135.6 67.25 134.3 67.25C131.9 67.25 129.7 68.2 127.7 70.1C125.7 72 124.05 74.35 122.75 77.15C121.55 79.85 120.95 82.5 120.95 85.1C120.95 88.5 121.7 91.9 123.2 95.3C124.8 98.7 126.7 102.05 128.9 105.35C131.2 108.65 133.35 111.95 135.35 115.25C137.15 118.35 138.45 121.3 139.25 124.1C140.15 126.8 140.6 129.35 140.6 131.75C140.6 138.15 137.95 143.25 132.65 147.05C127.45 150.75 120.5 152.6 111.8 152.6Z" fill="black"/>
</svg>
