<svg width="300" height="197" viewBox="0 0 300 197" fill="none" xmlns="http://www.w3.org/2000/svg">
<path d="M277.532 0.000572205H22.4678C10.0588 0.000572205 0 10.0594 0 22.4683V174.085C0 186.493 10.0588 196.553 22.4678 196.553H277.532C289.941 196.553 300 186.494 300 174.085V22.4683C300 10.0594 289.941 0.000572205 277.532 0.000572205Z" fill="#F5F5F5"/>
<path d="M1.23574 15.1201H298.764C295.719 6.32108 287.366 0.000572205 277.532 0.000572205H22.4678C12.6334 0.000572205 4.28086 6.32108 1.23574 15.1201Z" fill="#FF4B55"/>
<path d="M300 60.4775H0V75.5965H300V60.4775Z" fill="#FF4B55"/>
<path d="M300 30.2373H0V45.3562H300V30.2373Z" fill="#FF4B55"/>
<path d="M0 100.663C0 103.52 2.31621 105.836 5.17266 105.836H300V90.7166H0V100.663Z" fill="#FF4B55"/>
<path d="M300 151.198H0V166.318H300V151.198Z" fill="#FF4B55"/>
<path d="M298.764 181.433H1.23574C4.28086 190.232 12.634 196.552 22.4678 196.552H277.532C287.367 196.552 295.719 190.232 298.764 181.433Z" fill="#FF4B55"/>
<path d="M300 120.958H0V136.077H300V120.958Z" fill="#FF4B55"/>
<path d="M5.17266 105.836L134.483 105.836C137.34 105.836 139.656 103.52 139.656 100.663V5.17265C139.656 2.31562 137.34 0 134.483 0L22.4678 0.000572205C10.0588 0.00115814 0 10.0594 0 22.4683V100.663C0 103.52 2.31621 105.836 5.17266 105.836Z" fill="#41479B"/>
<path d="M14.525 11.8723L15.6699 15.3059L19.2892 15.3335C19.758 15.3376 19.9519 15.9352 19.5752 16.2135L16.6636 18.3634L17.7558 21.8139C17.8976 22.2604 17.3884 22.6307 17.007 22.3577L14.0627 20.2536L11.1183 22.3583C10.7369 22.6313 10.2289 22.261 10.3695 21.8145L11.4617 18.3639L8.55017 16.2141C8.17341 15.9352 8.36736 15.3376 8.83611 15.3341L12.4554 15.3065L13.6004 11.8729C13.748 11.4276 14.3761 11.4276 14.525 11.8723Z" fill="#F5F5F5"/>
<path d="M14.525 29.8337L15.6699 33.2673L19.2892 33.2948C19.758 33.2989 19.9519 33.896 19.5752 34.1749L16.6636 36.3253L17.7558 39.7758C17.8976 40.2223 17.3884 40.5926 17.007 40.3196L14.0627 38.2155L11.1183 40.3202C10.7369 40.5926 10.2289 40.2229 10.3695 39.7764L11.4617 36.3258L8.55017 34.1755C8.17341 33.8966 8.36736 33.2995 8.83611 33.2954L12.4554 33.2678L13.6004 29.8342C13.748 29.3895 14.3761 29.3895 14.525 29.8337Z" fill="#F5F5F5"/>
<path d="M14.525 47.7956L15.6699 51.2292L19.2892 51.2567C19.758 51.2608 19.9519 51.8579 19.5752 52.1368L16.6636 54.2872L17.7558 57.7378C17.8976 58.1842 17.3884 58.5546 17.007 58.2815L14.0627 56.1774L11.1183 58.2821C10.7369 58.5546 10.2289 58.1854 10.3695 57.7384L11.4617 54.2878L8.55017 52.1374C8.17341 51.8585 8.36736 51.2614 8.83611 51.2573L12.4554 51.2298L13.6004 47.7962C13.748 47.3509 14.3761 47.3508 14.525 47.7956Z" fill="#F5F5F5"/>
<path d="M14.525 65.7569L15.6699 69.1905L19.2892 69.218C19.758 69.2221 19.9519 69.8198 19.5752 70.0981L16.6636 72.2485L17.7558 75.6991C17.8976 76.1456 17.3884 76.5159 17.007 76.2428L14.0627 74.1387L11.1183 76.2434C10.7369 76.5159 10.2289 76.1462 10.3695 75.6997L11.4617 72.2491L8.55017 70.0987C8.17341 69.821 8.36736 69.2227 8.83611 69.2186L12.4554 69.1911L13.6004 65.7575C13.748 65.3122 14.3761 65.3122 14.525 65.7569Z" fill="#F5F5F5"/>
<path d="M14.525 83.7182L15.6699 87.1518L19.2892 87.1794C19.758 87.1835 19.9519 87.7805 19.5752 88.0595L16.6636 90.2098L17.7558 93.6604C17.8976 94.1069 17.3884 94.4772 17.007 94.2042L14.0627 92.1001L11.1183 94.2048C10.7369 94.4772 10.2289 94.1075 10.3695 93.661L11.4617 90.2104L8.55017 88.06C8.17341 87.7811 8.36736 87.1841 8.83611 87.18L12.4554 87.1524L13.6004 83.7188C13.748 83.2741 14.3761 83.2741 14.525 83.7182Z" fill="#F5F5F5"/>
<path d="M28.4662 20.6784L29.6111 24.112L33.2304 24.1395C33.6992 24.1436 33.8931 24.7413 33.5164 25.0196L30.6049 27.17L31.697 30.6206C31.8388 31.0671 31.3297 31.4374 30.9482 31.1643L28.0039 29.0596L25.0595 31.1643C24.6781 31.4368 24.1701 31.0671 24.3107 30.6206L25.4029 27.17L22.4914 25.0196C22.1146 24.7407 22.3086 24.1436 22.7773 24.1395L26.3967 24.112L27.5416 20.6784C27.6892 20.2343 28.3179 20.2343 28.4662 20.6784Z" fill="#F5F5F5"/>
<path d="M28.4662 38.6403L29.6111 42.0739L33.2304 42.1014C33.6992 42.1055 33.8931 42.7032 33.5164 42.9815L30.6049 45.1319L31.697 48.5825C31.8388 49.029 31.3297 49.3993 30.9482 49.1262L28.0039 47.0216L25.0595 49.1262C24.6781 49.3987 24.1701 49.0296 24.3107 48.5825L25.4029 45.1319L22.4914 42.9815C22.1146 42.7038 22.3086 42.1055 22.7773 42.1014L26.3967 42.0739L27.5416 38.6403C27.6892 38.1956 28.3179 38.1956 28.4662 38.6403Z" fill="#F5F5F5"/>
<path d="M28.4662 56.6016L29.6111 60.0352L33.2304 60.0628C33.6992 60.0669 33.8931 60.6639 33.5164 60.9428L30.6049 63.0932L31.697 66.5438C31.8388 66.9903 31.3297 67.3606 30.9482 67.0876L28.0039 64.9829L25.0595 67.0876C24.6781 67.36 24.1701 66.9903 24.3107 66.5438L25.4029 63.0932L22.4914 60.9428C22.1146 60.6639 22.3086 60.0669 22.7773 60.0628L26.3967 60.0352L27.5416 56.6016C27.6892 56.1569 28.3179 56.1569 28.4662 56.6016Z" fill="#F5F5F5"/>
<path d="M28.4662 74.563L29.6111 77.9966L33.2304 78.0241C33.6992 78.0282 33.8931 78.6253 33.5164 78.9042L30.6049 81.0546L31.697 84.5051C31.8388 84.9516 31.3297 85.322 30.9482 85.0489L28.0039 82.9442L25.0595 85.0489C24.6781 85.322 24.1701 84.9516 24.3107 84.5051L25.4029 81.0546L22.4914 78.9042C22.1146 78.6253 22.3086 78.0282 22.7773 78.0241L26.3967 77.9966L27.5416 74.563C27.6892 74.1188 28.3179 74.1188 28.4662 74.563Z" fill="#F5F5F5"/>
<path d="M42.4074 11.8723L43.5523 15.3059L47.1717 15.3335C47.6404 15.3376 47.8344 15.9352 47.4576 16.2135L44.5461 18.3633L45.6383 21.8139C45.78 22.2604 45.2709 22.6307 44.8894 22.3577L41.9451 20.253L39.0007 22.3577C38.6193 22.6307 38.1113 22.2604 38.2519 21.8139L39.3441 18.3633L36.4326 16.2135C36.0558 15.9346 36.2498 15.337 36.7185 15.3335L40.3379 15.3059L41.4828 11.8723C41.6304 11.4276 42.2592 11.4276 42.4074 11.8723Z" fill="#F5F5F5"/>
<path d="M42.4074 29.8337L43.5523 33.2673L47.1717 33.2948C47.6404 33.2989 47.8344 33.896 47.4576 34.1749L44.5461 36.3253L45.6383 39.7759C45.78 40.2223 45.2709 40.5927 44.8894 40.3196L41.9451 38.2149L39.0007 40.3196C38.6193 40.5921 38.1113 40.2223 38.2519 39.7759L39.3441 36.3253L36.4326 34.1749C36.0558 33.896 36.2498 33.2989 36.7185 33.2948L40.3379 33.2673L41.4828 29.8337C41.6304 29.3895 42.2592 29.3895 42.4074 29.8337Z" fill="#F5F5F5"/>
<path d="M42.4074 47.7956L43.5523 51.2292L47.1717 51.2567C47.6404 51.2608 47.8344 51.8579 47.4576 52.1368L44.5461 54.2872L45.6383 57.7378C45.78 58.1843 45.2709 58.5546 44.8894 58.2815L41.9451 56.1768L39.0007 58.2815C38.6193 58.554 38.1113 58.1848 38.2519 57.7378L39.3441 54.2872L36.4326 52.1368C36.0558 51.8579 36.2498 51.2608 36.7185 51.2567L40.3379 51.2292L41.4828 47.7956C41.6304 47.3509 42.2592 47.3509 42.4074 47.7956Z" fill="#F5F5F5"/>
<path d="M42.4074 65.7569L43.5523 69.1905L47.1717 69.218C47.6404 69.2221 47.8344 69.8198 47.4576 70.0981L44.5461 72.2485L45.6383 75.6991C45.78 76.1456 45.2709 76.5159 44.8894 76.2428L41.9451 74.1382L39.0007 76.2428C38.6193 76.5153 38.1113 76.1456 38.2519 75.6991L39.3441 72.2485L36.4326 70.0981C36.0558 69.8204 36.2498 69.2221 36.7185 69.218L40.3379 69.1905L41.4828 65.7569C41.6304 65.3122 42.2592 65.3122 42.4074 65.7569Z" fill="#F5F5F5"/>
<path d="M42.4074 83.7182L43.5523 87.1518L47.1717 87.1794C47.6404 87.1835 47.8344 87.7805 47.4576 88.0595L44.5461 90.2098L45.6383 93.6604C45.78 94.1069 45.2709 94.4772 44.8894 94.2042L41.9451 92.0995L39.0007 94.2042C38.6193 94.4766 38.1113 94.1069 38.2519 93.6604L39.3441 90.2098L36.4326 88.0595C36.0558 87.7805 36.2498 87.1835 36.7185 87.1794L40.3379 87.1518L41.4828 83.7182C41.6304 83.2741 42.2592 83.2741 42.4074 83.7182Z" fill="#F5F5F5"/>
<path d="M56.3492 20.6784L57.4941 24.112L61.1135 24.1395C61.5822 24.1436 61.7762 24.7413 61.3994 25.0196L58.4879 27.17L59.5801 30.6206C59.7218 31.0671 59.2127 31.4374 58.8312 31.1643L55.8869 29.0596L52.9426 31.1643C52.5611 31.4368 52.0531 31.0671 52.1937 30.6206L53.2859 27.17L50.3744 25.0196C49.9976 24.7407 50.1916 24.1436 50.6603 24.1395L54.2797 24.112L55.4246 20.6784C55.5717 20.2343 56.201 20.2343 56.3492 20.6784Z" fill="#F5F5F5"/>
<path d="M56.3492 38.6403L57.4941 42.0739L61.1135 42.1014C61.5822 42.1055 61.7762 42.7032 61.3994 42.9815L58.4879 45.1319L59.5801 48.5825C59.7218 49.029 59.2127 49.3993 58.8312 49.1262L55.8869 47.0216L52.9426 49.1262C52.5611 49.3987 52.0531 49.0296 52.1937 48.5825L53.2859 45.1319L50.3744 42.9815C49.9976 42.7038 50.1916 42.1055 50.6603 42.1014L54.2797 42.0739L55.4246 38.6403C55.5717 38.1956 56.201 38.1956 56.3492 38.6403Z" fill="#F5F5F5"/>
<path d="M56.3492 56.6016L57.4941 60.0352L61.1135 60.0628C61.5822 60.0669 61.7762 60.6639 61.3994 60.9428L58.4879 63.0932L59.5801 66.5438C59.7218 66.9903 59.2127 67.3606 58.8312 67.0876L55.8869 64.9829L52.9426 67.0876C52.5611 67.36 52.0531 66.9903 52.1937 66.5438L53.2859 63.0932L50.3744 60.9428C49.9976 60.6639 50.1916 60.0669 50.6603 60.0628L54.2797 60.0352L55.4246 56.6016C55.5717 56.1569 56.201 56.1569 56.3492 56.6016Z" fill="#F5F5F5"/>
<path d="M56.3492 74.563L57.4941 77.9966L61.1135 78.0241C61.5822 78.0282 61.7762 78.6253 61.3994 78.9042L58.4879 81.0546L59.5801 84.5051C59.7218 84.9516 59.2127 85.322 58.8312 85.0489L55.8869 82.9442L52.9426 85.0489C52.5611 85.322 52.0531 84.9516 52.1937 84.5051L53.2859 81.0546L50.3744 78.9042C49.9976 78.6253 50.1916 78.0282 50.6603 78.0241L54.2797 77.9966L55.4246 74.563C55.5717 74.1188 56.201 74.1188 56.3492 74.563Z" fill="#F5F5F5"/>
<path d="M70.2904 11.8723L71.4353 15.3059L75.0547 15.3335C75.5234 15.3376 75.7174 15.9352 75.3406 16.2135L72.4291 18.3634L73.5213 21.8139C73.6631 22.2604 73.1539 22.6307 72.7724 22.3577L69.8275 20.2536L66.8832 22.3583C66.5017 22.6313 65.9937 22.261 66.1344 21.8145L67.2265 18.3639L64.315 16.2141C63.9383 15.9352 64.1322 15.3376 64.601 15.3341L68.2203 15.3065L69.3652 11.8729C69.5135 11.4276 70.1422 11.4276 70.2904 11.8723Z" fill="#F5F5F5"/>
<path d="M70.2904 29.8337L71.4353 33.2673L75.0547 33.2948C75.5234 33.2989 75.7174 33.896 75.3406 34.1749L72.4291 36.3253L73.5213 39.7759C73.6631 40.2223 73.1539 40.5927 72.7724 40.3196L69.8275 38.2149L66.8832 40.3196C66.5017 40.5921 65.9937 40.2223 66.1344 39.7759L67.2265 36.3253L64.315 34.1749C63.9383 33.896 64.1322 33.2989 64.601 33.2948L68.2203 33.2673L69.3652 29.8337C69.5135 29.3895 70.1422 29.3895 70.2904 29.8337Z" fill="#F5F5F5"/>
<path d="M70.2904 47.7956L71.4353 51.2292L75.0547 51.2567C75.5234 51.2608 75.7174 51.8579 75.3406 52.1368L72.4291 54.2872L73.5213 57.7378C73.6631 58.1843 73.1539 58.5546 72.7724 58.2815L69.8275 56.1762L66.8832 58.2809C66.5017 58.5534 65.9937 58.1837 66.1344 57.7372L67.2265 54.2866L64.315 52.1362C63.9383 51.8573 64.1322 51.2602 64.601 51.2561L68.2203 51.2286L69.3652 47.795C69.5135 47.3509 70.1422 47.3509 70.2904 47.7956Z" fill="#F5F5F5"/>
<path d="M70.2904 65.7569L71.4353 69.1905L75.0547 69.218C75.5234 69.2221 75.7174 69.8198 75.3406 70.0981L72.4291 72.2485L73.5213 75.6991C73.6631 76.1456 73.1539 76.5159 72.7724 76.2428L69.8275 74.1382L66.8832 76.2428C66.5017 76.5153 65.9937 76.1456 66.1344 75.6991L67.2265 72.2485L64.315 70.0981C63.9383 69.8204 64.1322 69.2221 64.601 69.218L68.2203 69.1905L69.3652 65.7569C69.5135 65.3122 70.1422 65.3122 70.2904 65.7569Z" fill="#F5F5F5"/>
<path d="M70.2904 83.7182L71.4353 87.1518L75.0547 87.1794C75.5234 87.1835 75.7174 87.7805 75.3406 88.0595L72.4291 90.2098L73.5213 93.6604C73.6631 94.1069 73.1539 94.4772 72.7724 94.2042L69.8275 92.0995L66.8832 94.2042C66.5017 94.4766 65.9937 94.1069 66.1344 93.6604L67.2265 90.2098L64.315 88.0595C63.9383 87.7805 64.1322 87.1835 64.601 87.1794L68.2203 87.1518L69.3652 83.7182C69.5135 83.2741 70.1422 83.2741 70.2904 83.7182Z" fill="#F5F5F5"/>
<path d="M84.2316 20.6784L85.3765 24.112L88.9959 24.1395C89.4646 24.1436 89.6586 24.7413 89.2818 25.0196L86.3703 27.17L87.4625 30.6206C87.6043 31.0671 87.0951 31.4374 86.7136 31.1643L83.7693 29.0596L80.825 31.1643C80.4435 31.4368 79.9355 31.0671 80.0761 30.6206L81.1683 27.17L78.2568 25.0196C77.8801 24.7407 78.074 24.1436 78.5428 24.1395L82.1621 24.112L83.307 20.6784C83.4552 20.2343 84.0834 20.2343 84.2316 20.6784Z" fill="#F5F5F5"/>
<path d="M84.2316 38.6403L85.3765 42.0739L88.9959 42.1014C89.4646 42.1055 89.6586 42.7032 89.2818 42.9815L86.3703 45.1319L87.4625 48.5825C87.6043 49.029 87.0951 49.3993 86.7136 49.1262L83.7693 47.0216L80.825 49.1262C80.4435 49.3987 79.9355 49.0296 80.0761 48.5825L81.1683 45.1319L78.2568 42.9815C77.8801 42.7038 78.074 42.1055 78.5428 42.1014L82.1621 42.0739L83.307 38.6403C83.4552 38.1956 84.0834 38.1956 84.2316 38.6403Z" fill="#F5F5F5"/>
<path d="M84.2316 56.6016L85.3765 60.0352L88.9959 60.0628C89.4646 60.0669 89.6586 60.6639 89.2818 60.9428L86.3703 63.0932L87.4625 66.5438C87.6043 66.9903 87.0951 67.3606 86.7136 67.0876L83.7693 64.9829L80.825 67.0876C80.4435 67.36 79.9355 66.9903 80.0761 66.5438L81.1683 63.0932L78.2568 60.9428C77.8801 60.6639 78.074 60.0669 78.5428 60.0628L82.1621 60.0352L83.307 56.6016C83.4552 56.1569 84.0834 56.1569 84.2316 56.6016Z" fill="#F5F5F5"/>
<path d="M84.2316 74.563L85.3765 77.9966L88.9959 78.0241C89.4646 78.0282 89.6586 78.6253 89.2818 78.9042L86.3703 81.0546L87.4625 84.5051C87.6043 84.9516 87.0951 85.322 86.7136 85.0489L83.7693 82.9442L80.825 85.0489C80.4435 85.322 79.9355 84.9516 80.0761 84.5051L81.1683 81.0546L78.2568 78.9042C77.8801 78.6253 78.074 78.0282 78.5428 78.0241L82.1621 77.9966L83.307 74.563C83.4552 74.1188 84.0834 74.1188 84.2316 74.563Z" fill="#F5F5F5"/>
<path d="M98.1734 11.8723L99.3183 15.3059L102.938 15.3335C103.406 15.3376 103.6 15.9352 103.224 16.2135L100.312 18.3633L101.404 21.8139C101.546 22.2604 101.037 22.6307 100.655 22.3577L97.7111 20.253L94.7668 22.3577C94.3853 22.6307 93.8773 22.2604 94.0179 21.8139L95.1101 18.3633L92.1986 16.2135C91.8219 15.9346 92.0158 15.337 92.4845 15.3335L96.1039 15.3059L97.2488 11.8723C97.3959 11.4276 98.0252 11.4276 98.1734 11.8723Z" fill="#F5F5F5"/>
<path d="M98.1734 29.8337L99.3183 33.2673L102.938 33.2948C103.406 33.2989 103.6 33.896 103.224 34.1749L100.312 36.3253L101.404 39.7759C101.546 40.2223 101.037 40.5927 100.655 40.3196L97.7111 38.2149L94.7668 40.3196C94.3853 40.5921 93.8773 40.2223 94.0179 39.7759L95.1101 36.3253L92.1986 34.1749C91.8219 33.896 92.0158 33.2989 92.4845 33.2948L96.1039 33.2673L97.2488 29.8337C97.3959 29.3895 98.0252 29.3895 98.1734 29.8337Z" fill="#F5F5F5"/>
<path d="M98.1734 47.7956L99.3183 51.2292L102.938 51.2567C103.406 51.2608 103.6 51.8579 103.224 52.1368L100.312 54.2872L101.404 57.7378C101.546 58.1843 101.037 58.5546 100.655 58.2815L97.7111 56.1768L94.7668 58.2815C94.3853 58.554 93.8773 58.1848 94.0179 57.7378L95.1101 54.2872L92.1986 52.1368C91.8219 51.8579 92.0158 51.2608 92.4845 51.2567L96.1039 51.2292L97.2488 47.7956C97.3959 47.3509 98.0252 47.3509 98.1734 47.7956Z" fill="#F5F5F5"/>
<path d="M98.1734 65.7569L99.3183 69.1905L102.938 69.218C103.406 69.2221 103.6 69.8198 103.224 70.0981L100.312 72.2485L101.404 75.6991C101.546 76.1456 101.037 76.5159 100.655 76.2428L97.7111 74.1382L94.7668 76.2428C94.3853 76.5153 93.8773 76.1456 94.0179 75.6991L95.1101 72.2485L92.1986 70.0981C91.8219 69.8204 92.0158 69.2221 92.4845 69.218L96.1039 69.1905L97.2488 65.7569C97.3959 65.3122 98.0252 65.3122 98.1734 65.7569Z" fill="#F5F5F5"/>
<path d="M98.1734 83.7182L99.3183 87.1518L102.938 87.1794C103.406 87.1835 103.6 87.7805 103.224 88.0595L100.312 90.2098L101.404 93.6604C101.546 94.1069 101.037 94.4772 100.655 94.2042L97.7111 92.0995L94.7668 94.2042C94.3853 94.4766 93.8773 94.1069 94.0179 93.6604L95.1101 90.2098L92.1986 88.0595C91.8219 87.7805 92.0158 87.1835 92.4845 87.1794L96.1039 87.1518L97.2488 83.7182C97.3959 83.2741 98.0252 83.2741 98.1734 83.7182Z" fill="#F5F5F5"/>
<path d="M112.115 20.6784L113.26 24.112L116.879 24.1395C117.348 24.1436 117.542 24.7413 117.165 25.0196L114.253 27.17L115.345 30.6206C115.487 31.0671 114.978 31.4374 114.597 31.1643L111.652 29.0596L108.708 31.1643C108.327 31.4368 107.819 31.0671 107.959 30.6206L109.051 27.17L106.14 25.0196C105.763 24.7407 105.957 24.1436 106.426 24.1395L110.045 24.112L111.19 20.6784C111.338 20.2343 111.966 20.2343 112.115 20.6784Z" fill="#F5F5F5"/>
<path d="M112.115 38.6403L113.26 42.0739L116.879 42.1014C117.348 42.1055 117.542 42.7032 117.165 42.9815L114.253 45.1319L115.345 48.5825C115.487 49.029 114.978 49.3993 114.597 49.1262L111.652 47.0216L108.708 49.1262C108.327 49.3987 107.819 49.0296 107.959 48.5825L109.051 45.1319L106.14 42.9815C105.763 42.7038 105.957 42.1055 106.426 42.1014L110.045 42.0739L111.19 38.6403C111.338 38.1956 111.966 38.1956 112.115 38.6403Z" fill="#F5F5F5"/>
<path d="M112.115 56.6016L113.26 60.0352L116.879 60.0628C117.348 60.0669 117.542 60.6639 117.165 60.9428L114.253 63.0932L115.345 66.5438C115.487 66.9903 114.978 67.3606 114.597 67.0876L111.652 64.9829L108.708 67.0876C108.327 67.36 107.819 66.9903 107.959 66.5438L109.051 63.0932L106.14 60.9428C105.763 60.6639 105.957 60.0669 106.426 60.0628L110.045 60.0352L111.19 56.6016C111.338 56.1569 111.966 56.1569 112.115 56.6016Z" fill="#F5F5F5"/>
<path d="M112.115 74.563L113.26 77.9966L116.879 78.0241C117.348 78.0282 117.542 78.6253 117.165 78.9042L114.253 81.0546L115.345 84.5051C115.487 84.9516 114.978 85.322 114.597 85.0489L111.652 82.9442L108.708 85.0489C108.327 85.322 107.819 84.9516 107.959 84.5051L109.051 81.0546L106.14 78.9042C105.763 78.6253 105.957 78.0282 106.426 78.0241L110.045 77.9966L111.19 74.563C111.338 74.1188 111.966 74.1188 112.115 74.563Z" fill="#F5F5F5"/>
<path d="M126.056 11.8723L127.201 15.3059L130.821 15.3335C131.289 15.3376 131.483 15.9352 131.107 16.2135L128.195 18.3633L129.287 21.8139C129.429 22.2604 128.92 22.6307 128.538 22.3577L125.594 20.253L122.65 22.3577C122.268 22.6307 121.76 22.2604 121.901 21.8139L122.993 18.3633L120.082 16.2135C119.705 15.9346 119.899 15.337 120.368 15.3335L123.987 15.3059L125.132 11.8723C125.279 11.4276 125.908 11.4276 126.056 11.8723Z" fill="#F5F5F5"/>
<path d="M126.056 29.8337L127.201 33.2673L130.821 33.2948C131.289 33.2989 131.483 33.896 131.107 34.1749L128.195 36.3253L129.287 39.7759C129.429 40.2223 128.92 40.5927 128.538 40.3196L125.594 38.2149L122.65 40.3196C122.268 40.5921 121.76 40.2223 121.901 39.7759L122.993 36.3253L120.082 34.1749C119.705 33.896 119.899 33.2989 120.368 33.2948L123.987 33.2673L125.132 29.8337C125.279 29.3895 125.908 29.3895 126.056 29.8337Z" fill="#F5F5F5"/>
<path d="M126.056 47.7956L127.201 51.2292L130.821 51.2567C131.289 51.2608 131.483 51.8579 131.107 52.1368L128.195 54.2872L129.287 57.7378C129.429 58.1843 128.92 58.5546 128.538 58.2815L125.594 56.1768L122.65 58.2815C122.268 58.554 121.76 58.1848 121.901 57.7378L122.993 54.2872L120.082 52.1368C119.705 51.8579 119.899 51.2608 120.368 51.2567L123.987 51.2292L125.132 47.7956C125.279 47.3509 125.908 47.3509 126.056 47.7956Z" fill="#F5F5F5"/>
<path d="M126.056 65.7569L127.201 69.1905L130.821 69.218C131.289 69.2221 131.483 69.8198 131.107 70.0981L128.195 72.2485L129.287 75.6991C129.429 76.1456 128.92 76.5159 128.538 76.2428L125.594 74.1382L122.65 76.2428C122.268 76.5153 121.76 76.1456 121.901 75.6991L122.993 72.2485L120.082 70.0981C119.705 69.8204 119.899 69.2221 120.368 69.218L123.987 69.1905L125.132 65.7569C125.279 65.3122 125.908 65.3122 126.056 65.7569Z" fill="#F5F5F5"/>
<path d="M126.056 83.7182L127.201 87.1518L130.821 87.1794C131.289 87.1835 131.483 87.7805 131.107 88.0595L128.195 90.2098L129.287 93.6604C129.429 94.1069 128.92 94.4772 128.538 94.2042L125.594 92.0995L122.65 94.2042C122.268 94.4766 121.76 94.1069 121.901 93.6604L122.993 90.2098L120.082 88.0595C119.705 87.7805 119.899 87.1835 120.368 87.1794L123.987 87.1518L125.132 83.7182C125.279 83.2741 125.908 83.2741 126.056 83.7182Z" fill="#F5F5F5"/>
</svg>
