<svg width="320" height="240" viewBox="0 0 320 240" fill="none" xmlns="http://www.w3.org/2000/svg">
<mask id="mask0_171_419" style="mask-type:luminance" maskUnits="userSpaceOnUse" x="0" y="0" width="300" height="225">
<path d="M0 0H300V225H0V0Z" fill="white"/>
</mask>
<g mask="url(#mask0_171_419)">
<path fill-rule="evenodd" clip-rule="evenodd" d="M295.304 190.081C295.304 203.335 284.559 214.081 271.304 214.081H28.6934C15.4386 214.081 4.69336 203.335 4.69336 190.081V34.3008C4.69336 21.0459 15.4385 10.3008 28.6934 10.3008H271.304C284.559 10.3008 295.304 21.0459 295.304 34.3008V190.081Z" fill="white"/>
<path fill-rule="evenodd" clip-rule="evenodd" d="M152.546 112.35C152.546 124.225 147.829 135.614 139.432 144.011C131.035 152.408 119.647 157.126 107.772 157.126C95.8975 157.126 84.5091 152.408 76.1124 144.011C67.7157 135.614 62.9985 124.225 62.9985 112.35C62.9985 100.475 67.7157 89.0859 76.1124 80.6888C84.5091 72.2917 95.8975 67.5742 107.772 67.5742C119.647 67.5742 131.035 72.2917 139.432 80.6888C147.829 89.0859 152.546 100.475 152.546 112.35Z" fill="white"/>
<path fill-rule="evenodd" clip-rule="evenodd" d="M208.702 114.977C208.702 147.215 182.833 173.404 150.874 173.404C118.916 173.404 93.0864 147.215 93.0864 114.977C93.0864 82.738 118.956 56.5093 150.914 56.5093C182.873 56.5093 208.702 82.738 208.702 114.977Z" fill="#C70000"/>
<path fill-rule="evenodd" clip-rule="evenodd" d="M32.6318 60.7681L65.9036 22.2808L73.8236 29.0867L40.512 67.6138L32.6318 60.7681ZM43.5367 70.2009L76.8085 31.7135L84.7285 38.4797L51.4169 77.0466L43.5367 70.2009Z" fill="black"/>
<path fill-rule="evenodd" clip-rule="evenodd" d="M32.6318 60.7681L65.9036 22.2808L73.8236 29.0867L40.512 67.6138L32.6318 60.7681Z" fill="black"/>
<path fill-rule="evenodd" clip-rule="evenodd" d="M32.6318 60.7681L65.9036 22.2808L73.8236 29.0867L40.512 67.6138L32.6318 60.7681ZM54.6804 79.8724L87.9522 41.3055L95.8721 48.1512L62.5605 86.6784L54.6804 79.8724Z" fill="black"/>
<path fill-rule="evenodd" clip-rule="evenodd" d="M32.6318 60.7681L65.9036 22.2808L73.8236 29.0867L40.512 67.6138L32.6318 60.7681Z" fill="black"/>
<path fill-rule="evenodd" clip-rule="evenodd" d="M32.6318 60.7678L65.9036 22.2805L73.8236 29.0864L40.512 67.6136L32.6318 60.7678ZM235.128 22.2407L268.161 61.0066L260.201 67.7728L227.168 29.0068L235.128 22.2407ZM212.96 41.1461L245.993 79.912L238.033 86.6781L205 47.9122L212.96 41.1461Z" fill="black"/>
<path fill-rule="evenodd" clip-rule="evenodd" d="M218.493 63.4746L249.695 36.4897L255.545 43.2559L222.114 73.2656L218.413 63.4746H218.493Z" fill="white"/>
<path fill-rule="evenodd" clip-rule="evenodd" d="M256.938 158.519L224.94 196.648L217.099 190.12L249.097 151.991L256.938 158.519ZM224.144 31.594L257.177 70.3599L249.257 77.126L216.263 38.3203L224.144 31.594ZM267.803 167.553L235.765 205.682L227.885 199.155L259.923 161.026L267.803 167.553ZM245.874 149.325L213.876 187.454L206.035 180.926L238.033 142.797L245.874 149.325Z" fill="black"/>
<path fill-rule="evenodd" clip-rule="evenodd" d="M93.9222 104.668C95.7529 119.395 98.4195 135.793 121.065 137.464C129.542 137.982 146.059 135.474 151.71 112.31C159.192 90.1013 181.559 83.7332 196.802 95.753C205.518 101.405 207.906 110.36 208.463 117.126C207.787 138.618 195.369 157.325 179.49 165.683C161.182 176.549 135.87 176.787 113.702 160.31C103.713 150.957 89.7433 133.643 93.9222 104.668Z" fill="#3D5897"/>
<path fill-rule="evenodd" clip-rule="evenodd" d="M225.816 157.962L257.097 184.867L251.287 191.633L216.622 163.056L225.776 157.962H225.816Z" fill="white"/>
<path fill-rule="evenodd" clip-rule="evenodd" d="M51.5364 152.628L84.5694 191.355L76.6097 198.121L43.5767 159.395L51.5364 152.628Z" fill="black"/>
<path fill-rule="evenodd" clip-rule="evenodd" d="M45.8452 184.509L77.1271 157.484L82.9775 164.25L49.5465 194.3L45.8452 184.469V184.509Z" fill="white"/>
<path fill-rule="evenodd" clip-rule="evenodd" d="M62.5208 143.275L95.5538 182.002L87.594 188.768L54.561 150.042L62.5208 143.275ZM40.3528 162.181L73.3858 200.907L65.4261 207.673L32.3931 168.947L40.3528 162.181Z" fill="black"/>
</g>
</svg>
